# 3ds Max Wavefront OBJ Exporter v0.97b - (c)2007 guruware
# File Created: 13.05.2018 14:22:37

#
# object Box011
#

v  -0.5709 7.2637 0.0000
v  -0.5709 9.0579 0.0000
v  -0.5709 7.2637 0.8379
v  -0.5709 9.0579 0.8379
v  -1.6990 4.1073 1.8283
v  -1.1406 4.1073 1.8283
v  -1.3608 7.1685 0.0000
v  -0.8023 7.1685 0.0000
v  -1.6990 4.9166 2.0452
v  -1.1406 4.9166 2.0452
v  -1.3608 7.1685 0.8379
v  -0.8023 7.1685 0.8379
v  -1.6990 5.3589 0.0000
v  -1.1406 5.3589 0.0000
v  -1.1406 5.8749 0.8379
v  -1.6990 5.8749 0.8379
v  -1.1203 3.5774 0.0000
v  -0.8802 7.4113 0.0000
v  -1.1203 3.5774 1.2918
v  -0.8802 7.4113 1.2918
v  -0.5491 0.6044 1.0531
v  -1.1924 0.6143 1.0290
v  -0.3820 4.1718 0.9950
v  -1.0253 4.2096 0.9709
v  -0.4849 0.2818 -0.2365
v  -1.1282 0.2917 -0.2605
v  -0.3847 3.6206 0.1998
v  -1.0280 3.6584 0.1757
v  -0.4944 2.6134 1.7100
v  -1.1377 2.6513 1.6859
v  -1.0990 2.5886 0.5519
v  -0.4557 2.5507 0.5760
v  -0.5872 -0.0823 2.1616
v  -1.2563 -0.0709 2.1365
v  -1.1911 0.0068 -0.3877
v  -0.5219 -0.0047 -0.3627
v  0.0000 9.0579 0.0000
v  0.0000 7.2637 0.0000
v  0.0000 7.2637 0.8379
v  0.0000 9.0579 0.8379
v  0.0000 7.4113 1.2918
v  0.5709 7.2637 0.0000
v  0.5709 9.0579 0.0000
v  0.5709 7.2637 0.8379
v  0.5709 9.0579 0.8379
v  1.6990 4.1073 1.8283
v  1.6990 5.3589 0.0000
v  1.1406 5.3589 0.0000
v  1.1406 4.1073 1.8283
v  1.6990 4.9166 2.0452
v  1.1406 4.9166 2.0452
v  1.1406 5.8749 0.8379
v  1.6990 5.8749 0.8379
v  0.8023 7.1685 0.0000
v  1.3608 7.1685 0.0000
v  1.3608 7.1685 0.8379
v  0.8023 7.1685 0.8379
v  1.1203 3.5774 0.0000
v  0.8802 7.4113 0.0000
v  0.0000 7.4113 0.0000
v  0.0000 3.5774 0.0000
v  1.1203 3.5774 1.2918
v  0.0000 3.5774 1.2918
v  0.8802 7.4113 1.2918
v  0.5491 0.6044 1.0531
v  0.4944 2.6134 1.7100
v  1.1377 2.6513 1.6859
v  1.1924 0.6143 1.0290
v  0.4849 0.2818 -0.2365
v  1.1282 0.2917 -0.2605
v  1.0990 2.5886 0.5519
v  0.4557 2.5507 0.5760
v  0.5872 -0.0823 2.1616
v  1.2563 -0.0709 2.1365
v  1.1911 0.0068 -0.3877
v  0.5219 -0.0047 -0.3627
v  1.0253 4.2096 0.9709
v  0.3820 4.1718 0.9950
v  0.3847 3.6206 0.1998
v  1.0280 3.6584 0.1757
# 80 vertices

vn 0.0000 0.0000 -1.0000
vn 0.0000 0.0000 -1.0000
vn 0.0000 0.0000 -1.0000
vn 0.0000 0.0000 -1.0000
vn 0.0000 0.0000 -1.0000
vn 0.0000 0.0000 -1.0000
vn 0.0000 -0.0000 1.0000
vn 0.0000 -0.0000 1.0000
vn 0.0000 -0.0000 1.0000
vn 0.0000 -0.0000 1.0000
vn 0.0000 -0.0000 1.0000
vn 0.0000 -0.0000 1.0000
vn 0.0000 -1.0000 -0.0000
vn 0.0000 -1.0000 -0.0000
vn 0.0000 -1.0000 -0.0000
vn 0.0000 -1.0000 -0.0000
vn 0.0000 -1.0000 -0.0000
vn 0.0000 -1.0000 -0.0000
vn -1.0000 0.0000 -0.0000
vn -1.0000 0.0000 -0.0000
vn -1.0000 0.0000 -0.0000
vn -1.0000 0.0000 -0.0000
vn -1.0000 0.0000 -0.0000
vn -1.0000 0.0000 -0.0000
vn -0.0000 -0.6307 -0.7760
vn -0.0000 -0.5608 -0.8280
vn -0.0000 -0.9559 -0.2937
vn -0.0000 -0.9559 -0.2937
vn 0.0000 -0.9559 -0.2937
vn -0.0000 -0.6307 -0.7760
vn 0.0000 0.9420 0.3356
vn 0.0000 0.5322 0.8466
vn 0.0000 0.6262 0.7796
vn 0.0000 0.6262 0.7796
vn 0.0000 0.9420 0.3356
vn 0.0000 0.9420 0.3356
vn 0.0000 -0.5126 0.8586
vn 0.0000 -0.5126 0.8586
vn 0.0000 -0.5126 0.8586
vn 0.0000 -0.5126 0.8586
vn 0.0000 -0.5126 0.8586
vn 0.0000 -0.5126 0.8586
vn 0.9911 -0.1284 0.0355
vn 0.9956 -0.0928 0.0104
vn 1.0000 0.0000 -0.0000
vn 1.0000 0.0000 -0.0000
vn 1.0000 0.0000 -0.0000
vn 0.9911 -0.1284 0.0355
vn 0.0000 1.0000 0.0000
vn 0.0000 1.0000 0.0000
vn 0.0000 1.0000 0.0000
vn 0.0000 1.0000 0.0000
vn 0.0000 1.0000 0.0000
vn 0.0000 1.0000 0.0000
vn -0.9770 0.2112 -0.0307
vn -0.9911 0.1284 -0.0355
vn -0.9956 0.0928 -0.0104
vn -0.9956 0.0928 -0.0104
vn -0.9675 0.2530 0.0000
vn -0.9770 0.2112 -0.0307
vn 0.0000 0.0000 -1.0000
vn 0.0000 0.0000 -1.0000
vn -0.0000 -0.5608 -0.8280
vn -0.0000 -0.5608 -0.8280
vn -0.0000 -0.6307 -0.7760
vn 0.0000 0.0000 -1.0000
vn 0.0000 -0.0000 1.0000
vn 0.0000 -0.0000 1.0000
vn 0.0000 0.6262 0.7796
vn 0.0000 0.6262 0.7796
vn 0.0000 0.5322 0.8466
vn 0.0000 -0.0000 1.0000
vn 0.9770 -0.2112 0.0307
vn 0.9675 -0.2530 -0.0000
vn 0.9956 -0.0928 0.0104
vn 0.9956 -0.0928 0.0104
vn 0.9911 -0.1284 0.0355
vn 0.9770 -0.2112 0.0307
vn -0.9911 0.1284 -0.0355
vn -1.0000 0.0000 -0.0000
vn -1.0000 0.0000 -0.0000
vn -1.0000 0.0000 -0.0000
vn -0.9956 0.0928 -0.0104
vn -0.9911 0.1284 -0.0355
vn 0.0000 0.0000 -1.0000
vn 0.0000 0.0000 -1.0000
vn -0.0000 0.0000 -1.0000
vn -0.0000 0.0000 -1.0000
vn 0.0000 0.0000 -1.0000
vn 0.0000 0.0000 -1.0000
vn 0.0000 0.0000 1.0000
vn 0.0000 0.0000 1.0000
vn 0.0000 0.0000 1.0000
vn 0.0000 0.0000 1.0000
vn 0.0000 0.0000 1.0000
vn 0.0000 0.0000 1.0000
vn 0.0000 -1.0000 -0.0000
vn 0.0000 -1.0000 -0.0000
vn 0.0000 -1.0000 -0.0000
vn 0.0000 -1.0000 -0.0000
vn 0.0000 -1.0000 -0.0000
vn 0.0000 -1.0000 -0.0000
vn -0.9980 0.0625 0.0000
vn -0.9980 0.0625 0.0000
vn -0.9980 0.0625 0.0000
vn -0.9980 0.0625 0.0000
vn -0.9980 0.0625 0.0000
vn -0.9980 0.0625 0.0000
vn -0.0753 0.0819 0.9938
vn -0.0770 0.0972 0.9923
vn -0.0805 -0.5846 0.8073
vn -0.0805 -0.5846 0.8073
vn -0.0763 -0.5858 0.8069
vn -0.0753 0.0819 0.9938
vn 0.0784 0.6205 -0.7803
vn 0.0825 -0.0090 -0.9965
vn 0.0810 0.0063 -0.9967
vn 0.0810 0.0063 -0.9967
vn 0.0746 0.6213 -0.7800
vn 0.0784 0.6205 -0.7803
vn -0.0160 -0.9998 -0.0140
vn -0.0160 -0.9998 -0.0140
vn -0.0160 -0.9998 -0.0140
vn -0.0160 -0.9998 -0.0140
vn -0.0160 -0.9998 -0.0140
vn -0.0160 -0.9998 -0.0140
vn -0.9988 0.0446 -0.0193
vn -0.9991 0.0398 -0.0160
vn -0.9991 0.0357 -0.0216
vn -0.9991 0.0357 -0.0216
vn -0.9985 0.0466 -0.0276
vn -0.9988 0.0446 -0.0193
vn 0.0807 0.9517 -0.2962
vn 0.0807 0.9517 -0.2962
vn 0.0807 0.9517 -0.2962
vn 0.0807 0.9517 -0.2962
vn 0.0807 0.9517 -0.2962
vn 0.0807 0.9517 -0.2962
vn 0.9984 -0.0547 0.0162
vn 0.9988 -0.0450 0.0193
vn 0.9991 -0.0399 0.0160
vn 0.9991 -0.0399 0.0160
vn 0.9984 -0.0542 0.0154
vn 0.9984 -0.0547 0.0162
vn -0.0162 0.7153 0.6986
vn -0.0162 0.7153 0.6986
vn -0.0770 0.0972 0.9923
vn -0.0770 0.0972 0.9923
vn -0.0753 0.0819 0.9938
vn -0.0162 0.7153 0.6986
vn 0.0292 -0.6177 -0.7859
vn 0.0292 -0.6177 -0.7859
vn 0.0810 0.0063 -0.9967
vn 0.0810 0.0063 -0.9967
vn 0.0825 -0.0090 -0.9965
vn 0.0292 -0.6177 -0.7859
vn -0.9984 0.0547 -0.0162
vn -0.9984 0.0542 -0.0154
vn -0.9991 0.0398 -0.0160
vn -0.9991 0.0398 -0.0160
vn -0.9988 0.0446 -0.0193
vn -0.9984 0.0547 -0.0162
vn 0.9988 -0.0450 0.0193
vn 0.9985 -0.0473 0.0276
vn 0.9991 -0.0362 0.0216
vn 0.9991 -0.0362 0.0216
vn 0.9991 -0.0399 0.0160
vn 0.9988 -0.0450 0.0193
vn -0.0074 0.9636 0.2674
vn -0.0074 0.9636 0.2674
vn -0.0074 0.9636 0.2674
vn -0.0058 0.9635 0.2678
vn -0.0058 0.9635 0.2678
vn -0.0058 0.9635 0.2678
vn -0.9985 0.0541 -0.0108
vn -0.9985 0.0541 -0.0108
vn -0.9985 0.0541 -0.0108
vn -0.9633 0.2634 -0.0511
vn -0.9633 0.2634 -0.0511
vn -0.9633 0.2634 -0.0511
vn 0.0704 0.6941 -0.7164
vn 0.0704 0.6941 -0.7164
vn 0.0704 0.6941 -0.7164
vn 0.0715 0.6953 -0.7152
vn 0.0715 0.6953 -0.7152
vn 0.0715 0.6953 -0.7152
vn 0.9996 0.0178 0.0204
vn 0.9996 0.0178 0.0204
vn 0.9996 0.0178 0.0204
vn 0.9904 -0.1376 0.0096
vn 0.9904 -0.1376 0.0096
vn 0.9904 -0.1376 0.0096
vn 0.0000 1.0000 0.0000
vn 0.0000 1.0000 0.0000
vn 0.0000 1.0000 0.0000
vn 0.0000 1.0000 0.0000
vn 0.0000 1.0000 0.0000
vn 0.0000 1.0000 0.0000
vn 0.0000 1.0000 0.0000
vn 0.0000 1.0000 0.0000
vn 0.0000 1.0000 0.0000
vn 0.0000 1.0000 0.0000
vn 0.0000 1.0000 0.0000
vn 0.0000 1.0000 0.0000
vn 0.0000 0.0000 -1.0000
vn 0.0000 0.0000 -1.0000
vn 0.0000 0.0000 -1.0000
vn 0.0000 0.0000 -1.0000
vn 0.0000 0.0000 -1.0000
vn 0.0000 0.0000 -1.0000
vn 0.0000 -0.0000 1.0000
vn 0.0000 -0.0000 1.0000
vn 0.0000 -0.0000 1.0000
vn 0.0000 -0.0000 1.0000
vn 0.0000 -0.0000 1.0000
vn 0.0000 -0.0000 1.0000
vn 0.0000 -1.0000 -0.0000
vn 0.0000 -1.0000 -0.0000
vn 0.0000 -1.0000 -0.0000
vn 0.0000 -1.0000 -0.0000
vn 0.0000 -1.0000 -0.0000
vn 0.0000 -1.0000 -0.0000
vn 1.0000 0.0000 -0.0000
vn 1.0000 0.0000 -0.0000
vn 1.0000 0.0000 -0.0000
vn 1.0000 0.0000 -0.0000
vn 1.0000 0.0000 -0.0000
vn 1.0000 0.0000 -0.0000
vn 0.0000 -0.6307 -0.7760
vn 0.0000 -0.9559 -0.2937
vn 0.0000 -0.9559 -0.2937
vn 0.0000 -0.9559 -0.2937
vn 0.0000 -0.5608 -0.8280
vn 0.0000 -0.6307 -0.7760
vn 0.0000 0.9420 0.3356
vn 0.0000 0.9420 0.3356
vn 0.0000 0.6262 0.7796
vn 0.0000 0.6262 0.7796
vn 0.0000 0.5322 0.8466
vn 0.0000 0.9420 0.3356
vn 0.0000 -0.5126 0.8586
vn 0.0000 -0.5126 0.8586
vn 0.0000 -0.5126 0.8586
vn 0.0000 -0.5126 0.8586
vn 0.0000 -0.5126 0.8586
vn 0.0000 -0.5126 0.8586
vn -0.9911 -0.1284 0.0355
vn -1.0000 0.0000 -0.0000
vn -1.0000 0.0000 -0.0000
vn -1.0000 0.0000 -0.0000
vn -0.9956 -0.0928 0.0104
vn -0.9911 -0.1284 0.0355
vn 0.0000 1.0000 0.0000
vn 0.0000 1.0000 0.0000
vn 0.0000 1.0000 0.0000
vn 0.0000 1.0000 0.0000
vn 0.0000 1.0000 0.0000
vn 0.0000 1.0000 0.0000
vn 0.9770 0.2112 -0.0307
vn 0.9675 0.2530 0.0000
vn 0.9956 0.0928 -0.0104
vn 0.9956 0.0928 -0.0104
vn 0.9911 0.1284 -0.0355
vn 0.9770 0.2112 -0.0307
vn 0.0000 0.0000 -1.0000
vn 0.0000 -0.6307 -0.7760
vn 0.0000 -0.5608 -0.8280
vn 0.0000 -0.5608 -0.8280
vn 0.0000 0.0000 -1.0000
vn 0.0000 0.0000 -1.0000
vn 0.0000 -0.0000 1.0000
vn 0.0000 0.5322 0.8466
vn 0.0000 0.6262 0.7796
vn 0.0000 0.6262 0.7796
vn 0.0000 -0.0000 1.0000
vn 0.0000 -0.0000 1.0000
vn -0.9770 -0.2112 0.0307
vn -0.9911 -0.1284 0.0355
vn -0.9956 -0.0928 0.0104
vn -0.9956 -0.0928 0.0104
vn -0.9675 -0.2530 -0.0000
vn -0.9770 -0.2112 0.0307
vn 0.9911 0.1284 -0.0355
vn 0.9956 0.0928 -0.0104
vn 1.0000 0.0000 -0.0000
vn 1.0000 0.0000 -0.0000
vn 1.0000 0.0000 -0.0000
vn 0.9911 0.1284 -0.0355
vn -0.0000 0.0000 -1.0000
vn -0.0000 0.0000 -1.0000
vn -0.0000 0.0000 -1.0000
vn -0.0000 0.0000 -1.0000
vn 0.0000 0.0000 -1.0000
vn -0.0000 0.0000 -1.0000
vn 0.0000 0.0000 1.0000
vn 0.0000 0.0000 1.0000
vn 0.0000 0.0000 1.0000
vn 0.0000 0.0000 1.0000
vn 0.0000 0.0000 1.0000
vn 0.0000 0.0000 1.0000
vn 0.0000 -1.0000 -0.0000
vn -0.0000 -1.0000 -0.0000
vn -0.0000 -1.0000 -0.0000
vn -0.0000 -1.0000 -0.0000
vn 0.0000 -1.0000 -0.0000
vn 0.0000 -1.0000 -0.0000
vn 0.9980 0.0625 0.0000
vn 0.9980 0.0625 0.0000
vn 0.9980 0.0625 0.0000
vn 0.9980 0.0625 0.0000
vn 0.9980 0.0625 0.0000
vn 0.9980 0.0625 0.0000
vn 0.0753 0.0819 0.9938
vn 0.0763 -0.5858 0.8069
vn 0.0805 -0.5846 0.8073
vn 0.0805 -0.5846 0.8073
vn 0.0770 0.0972 0.9923
vn 0.0753 0.0819 0.9938
vn -0.0784 0.6205 -0.7803
vn -0.0746 0.6213 -0.7800
vn -0.0810 0.0063 -0.9967
vn -0.0810 0.0063 -0.9967
vn -0.0825 -0.0090 -0.9965
vn -0.0784 0.6205 -0.7803
vn 0.0160 -0.9998 -0.0140
vn 0.0160 -0.9998 -0.0140
vn 0.0160 -0.9998 -0.0140
vn 0.0160 -0.9998 -0.0140
vn 0.0160 -0.9998 -0.0140
vn 0.0160 -0.9998 -0.0140
vn 0.9988 0.0446 -0.0193
vn 0.9985 0.0466 -0.0276
vn 0.9991 0.0357 -0.0216
vn 0.9991 0.0357 -0.0216
vn 0.9991 0.0398 -0.0160
vn 0.9988 0.0446 -0.0193
vn -0.0807 0.9517 -0.2962
vn -0.0807 0.9517 -0.2962
vn -0.0807 0.9517 -0.2962
vn -0.0807 0.9517 -0.2962
vn -0.0807 0.9517 -0.2962
vn -0.0807 0.9517 -0.2962
vn -0.9984 -0.0547 0.0162
vn -0.9984 -0.0542 0.0154
vn -0.9991 -0.0399 0.0160
vn -0.9991 -0.0399 0.0160
vn -0.9988 -0.0450 0.0193
vn -0.9984 -0.0547 0.0162
vn 0.0162 0.7153 0.6986
vn 0.0753 0.0819 0.9938
vn 0.0770 0.0972 0.9923
vn 0.0770 0.0972 0.9923
vn 0.0162 0.7153 0.6986
vn 0.0162 0.7153 0.6986
vn -0.0292 -0.6177 -0.7859
vn -0.0825 -0.0090 -0.9965
vn -0.0810 0.0063 -0.9967
vn -0.0810 0.0063 -0.9967
vn -0.0292 -0.6177 -0.7859
vn -0.0292 -0.6177 -0.7859
vn 0.9984 0.0547 -0.0162
vn 0.9988 0.0446 -0.0193
vn 0.9991 0.0398 -0.0160
vn 0.9991 0.0398 -0.0160
vn 0.9984 0.0542 -0.0154
vn 0.9984 0.0547 -0.0162
vn -0.9988 -0.0450 0.0193
vn -0.9991 -0.0399 0.0160
vn -0.9991 -0.0362 0.0216
vn -0.9991 -0.0362 0.0216
vn -0.9985 -0.0473 0.0276
vn -0.9988 -0.0450 0.0193
vn 0.0058 0.9635 0.2678
vn 0.0058 0.9635 0.2678
vn 0.0058 0.9635 0.2678
vn 0.0074 0.9636 0.2674
vn 0.0074 0.9636 0.2674
vn 0.0074 0.9636 0.2674
vn 0.9633 0.2634 -0.0511
vn 0.9633 0.2634 -0.0511
vn 0.9633 0.2634 -0.0511
vn 0.9985 0.0541 -0.0108
vn 0.9985 0.0541 -0.0108
vn 0.9985 0.0541 -0.0108
vn -0.0715 0.6953 -0.7152
vn -0.0715 0.6953 -0.7152
vn -0.0715 0.6953 -0.7152
vn -0.0704 0.6941 -0.7164
vn -0.0704 0.6941 -0.7164
vn -0.0704 0.6941 -0.7164
vn -0.9904 -0.1376 0.0096
vn -0.9904 -0.1376 0.0096
vn -0.9904 -0.1376 0.0096
vn -0.9996 0.0178 0.0204
vn -0.9996 0.0178 0.0204
vn -0.9996 0.0178 0.0204
vn 0.0000 1.0000 0.0000
vn 0.0000 1.0000 0.0000
vn 0.0000 1.0000 0.0000
vn 0.0000 1.0000 0.0000
vn 0.0000 1.0000 0.0000
vn 0.0000 1.0000 0.0000
vn 0.0000 1.0000 0.0000
vn 0.0000 1.0000 0.0000
vn 0.0000 1.0000 0.0000
vn 0.0000 1.0000 0.0000
vn 0.0000 1.0000 0.0000
vn 0.0000 1.0000 0.0000
# 408 vertex normals

vt 1.0000 0.0000 0.0000
vt 1.0000 1.0000 0.0000
vt 0.0000 0.0000 0.0000
vt 0.0000 1.0000 0.0000
vt 0.0000 0.0000 0.0000
vt 0.0000 1.0000 0.0000
vt 1.0000 0.0000 0.0000
vt 1.0000 1.0000 0.0000
vt 0.0000 0.0000 0.0000
vt 1.0000 0.0000 0.0000
vt 0.0000 1.0000 0.0000
vt 1.0000 1.0000 0.0000
vt 1.0000 0.0000 0.0000
vt 0.0000 0.0000 0.0000
vt 1.0000 1.0000 0.0000
vt 0.0000 1.0000 0.0000
vt 0.0000 0.0000 0.0000
vt 1.0000 0.0000 0.0000
vt 0.0000 1.0000 0.0000
vt 1.0000 1.0000 0.0000
vt 0.0000 0.0000 0.0000
vt 1.0000 0.0000 0.0000
vt 0.0000 1.0000 0.0000
vt 1.0000 1.0000 0.0000
vt 0.0000 0.0000 0.0000
vt 1.0000 0.0000 0.0000
vt 0.0000 1.0000 0.0000
vt 1.0000 1.0000 0.0000
vt 0.0000 0.0000 0.0000
vt 1.0000 0.0000 0.0000
vt 0.0000 1.0000 0.0000
vt 1.0000 1.0000 0.0000
vt 0.0000 0.0000 0.0000
vt 1.0000 0.0000 0.0000
vt 0.0000 1.0000 0.0000
vt 1.0000 1.0000 0.0000
vt 1.0000 0.0744 0.0000
vt 0.9256 0.0000 0.0000
vt 0.0000 0.0744 0.0000
vt 0.0744 0.0000 0.0000
vt 1.0000 0.3621 0.0000
vt 0.3621 1.0000 0.0000
vt 0.0000 0.3621 0.0000
vt 0.6379 1.0000 0.0000
vt 1.0000 0.0000 0.0000
vt 1.0000 1.0000 0.0000
vt 0.0000 0.0000 0.0000
vt 0.0000 1.0000 0.0000
vt 0.0000 0.0000 0.0000
vt 0.0000 1.0000 0.0000
vt 1.0000 0.0000 0.0000
vt 1.0000 1.0000 0.0000
vt 0.0000 0.0000 0.0000
vt 1.0000 0.0000 0.0000
vt 0.0000 1.0000 0.0000
vt 1.0000 1.0000 0.0000
vt 1.0000 0.0000 0.0000
vt 0.0000 0.0000 0.0000
vt 1.0000 1.0000 0.0000
vt 0.0000 1.0000 0.0000
vt 0.0000 0.0000 0.0000
vt 1.0000 0.0000 0.0000
vt 0.0000 1.0000 0.0000
vt 1.0000 1.0000 0.0000
vt 0.0000 0.0000 0.0000
vt 1.0000 0.0000 0.0000
vt 0.0000 1.0000 0.0000
vt 1.0000 1.0000 0.0000
vt 0.0000 0.0000 0.0000
vt 1.0000 0.0000 0.0000
vt 0.0000 1.0000 0.0000
vt 1.0000 1.0000 0.0000
vt 0.0000 0.0000 0.0000
vt 1.0000 0.0000 0.0000
vt 0.0000 1.0000 0.0000
vt 1.0000 1.0000 0.0000
vt 0.0000 0.0000 0.0000
vt 1.0000 0.0000 0.0000
vt 0.0000 1.0000 0.0000
vt 1.0000 1.0000 0.0000
vt 1.0000 0.0744 0.0000
vt 0.9256 0.0000 0.0000
vt 0.0000 0.0744 0.0000
vt 0.0744 0.0000 0.0000
vt 1.0000 0.3621 0.0000
vt 0.3621 1.0000 0.0000
vt 0.0000 0.3621 0.0000
vt 0.6379 1.0000 0.0000
vt 0.0000 0.0000 0.0000
vt 1.0000 0.0000 0.0000
vt 1.0000 1.0000 0.0000
vt 0.0000 1.0000 0.0000
vt 0.5000 1.0000 0.0000
vt 0.5000 0.0000 0.0000
vt 0.5000 0.0000 0.0000
vt 0.5000 0.0000 0.0000
vt 0.5000 0.0000 0.0000
vt 0.5000 1.0000 0.0000
vt 0.5000 1.0000 0.0000
vt 0.5000 1.0000 0.0000
vt 0.5000 1.0000 0.0000
vt 0.5000 0.0000 0.0000
vt 0.4400 0.0000 0.0000
vt 0.5600 0.0000 0.0000
vt 0.5600 0.0000 0.0000
vt 0.5600 1.0000 0.0000
vt 0.5000 1.0000 0.0000
vt 0.5000 1.0000 0.0000
vt 1.0000 0.0000 0.0000
vt 1.0000 1.0000 0.0000
vt 0.5000 1.0000 0.0000
vt 0.5000 0.0000 0.0000
vt 0.0000 0.0000 0.0000
vt 0.5000 0.0000 0.0000
vt 0.5000 1.0000 0.0000
vt 0.0000 1.0000 0.0000
vt 0.0000 0.0000 0.0000
vt 0.5000 0.0000 0.0000
vt 0.5000 1.0000 0.0000
vt 0.0000 1.0000 0.0000
vt 0.0000 0.0000 0.0000
vt 1.0000 0.0000 0.0000
vt 1.0000 1.0000 0.0000
vt 0.0000 1.0000 0.0000
vt 1.0000 0.0000 0.0000
vt 1.0000 0.0744 0.0000
vt 0.0000 0.0744 0.0000
vt 0.0000 0.0000 0.0000
vt 0.0000 0.0000 0.0000
vt 1.0000 0.0000 0.0000
vt 1.0000 0.3621 0.0000
vt 0.0000 0.3621 0.0000
vt 0.0000 0.0000 0.0000
vt 1.0000 0.0000 0.0000
vt 1.0000 1.0000 0.0000
vt 0.0000 1.0000 0.0000
vt 0.0000 0.0000 0.0000
vt 0.0744 0.0000 0.0000
vt 0.3621 1.0000 0.0000
vt 0.0000 1.0000 0.0000
vt 0.0000 0.0000 0.0000
vt 1.0000 0.0000 0.0000
vt 1.0000 1.0000 0.0000
vt 0.0000 1.0000 0.0000
vt 0.0000 0.0000 0.0000
vt 0.9256 0.0000 0.0000
vt 0.6379 1.0000 0.0000
vt 0.0000 1.0000 0.0000
vt 1.0000 1.0000 0.0000
vt 0.0000 1.0000 0.0000
vt 1.0000 1.0000 0.0000
vt 0.0000 1.0000 0.0000
vt 1.0000 0.0000 0.0000
vt 1.0000 1.0000 0.0000
vt 1.0000 0.0000 0.0000
vt 1.0000 1.0000 0.0000
vt 1.0000 0.0000 0.0000
vt 1.0000 1.0000 0.0000
vt 0.5000 1.0000 0.0000
vt 0.4400 0.0000 0.0000
vt 0.0000 0.0000 0.0000
vt 0.5600 0.0000 0.0000
vt 0.5000 1.0000 0.0000
vt 0.0000 1.0000 0.0000
vt 0.0000 0.0000 0.0000
vt 0.5600 0.0000 0.0000
vt 0.5600 1.0000 0.0000
vt 0.0000 1.0000 0.0000
vt 0.0000 0.0000 0.0000
vt 1.0000 0.0000 0.0000
vt 1.0000 1.0000 0.0000
vt 0.0000 1.0000 0.0000
vt 1.0000 0.0000 0.0000
vt 1.0000 0.0744 0.0000
vt 0.0000 0.0744 0.0000
vt 0.0000 0.0000 0.0000
vt 0.0000 0.0000 0.0000
vt 1.0000 0.0000 0.0000
vt 1.0000 0.3621 0.0000
vt 0.0000 0.3621 0.0000
vt 0.0000 0.0000 0.0000
vt 1.0000 0.0000 0.0000
vt 1.0000 1.0000 0.0000
vt 0.0000 1.0000 0.0000
vt 0.0000 0.0000 0.0000
vt 0.0744 0.0000 0.0000
vt 0.3621 1.0000 0.0000
vt 0.0000 1.0000 0.0000
vt 0.0000 0.0000 0.0000
vt 1.0000 0.0000 0.0000
vt 1.0000 1.0000 0.0000
vt 0.0000 1.0000 0.0000
vt 0.0000 0.0000 0.0000
vt 0.9256 0.0000 0.0000
vt 0.6379 1.0000 0.0000
vt 0.0000 1.0000 0.0000
vt 1.0000 1.0000 0.0000
vt 0.0000 1.0000 0.0000
vt 1.0000 1.0000 0.0000
vt 0.0000 1.0000 0.0000
vt 1.0000 0.0000 0.0000
vt 1.0000 1.0000 0.0000
vt 1.0000 0.0000 0.0000
vt 1.0000 1.0000 0.0000
vt 0.0000 0.0000 0.0000
vt 1.0000 0.0000 0.0000
vt 1.0000 1.0000 0.0000
vt 0.0000 1.0000 0.0000
vt 0.5000 0.0000 0.0000
vt 1.0000 0.0000 0.0000
vt 1.0000 1.0000 0.0000
vt 0.5000 1.0000 0.0000
vt 0.5000 0.0000 0.0000
vt 1.0000 0.0000 0.0000
vt 1.0000 1.0000 0.0000
vt 0.5000 1.0000 0.0000
# 216 texture coords

g Box011
f 2/2/1 37/93/2 38/95/3 
f 38/95/4 1/1/5 2/2/6 
f 39/97/7 40/99/8 4/4/9 
f 4/4/10 3/3/11 39/97/12 
f 38/96/13 39/98/14 3/6/15 
f 3/6/16 1/5/17 38/96/18 
f 2/9/19 1/10/20 3/12/21 
f 3/12/22 4/11/23 2/9/24 
f 13/37/25 14/39/26 6/14/27 
f 6/14/28 5/13/29 13/37/30 
f 10/18/31 15/41/32 16/43/33 
f 16/43/34 9/17/35 10/18/36 
f 5/21/37 6/22/38 10/24/39 
f 10/24/40 9/23/41 5/21/42 
f 14/40/43 15/42/44 10/27/45 
f 10/27/46 6/25/47 14/40/48 
f 8/29/49 7/30/50 11/32/51 
f 11/32/52 12/31/53 8/29/54 
f 7/33/55 13/38/56 16/44/57 
f 16/44/58 11/35/59 7/33/60 
f 7/15/61 8/16/62 14/39/63 
f 14/39/64 13/37/65 7/15/66 
f 12/20/67 11/19/68 16/43/69 
f 16/43/70 15/41/71 12/20/72 
f 8/26/73 12/28/74 15/42/75 
f 15/42/76 14/40/77 8/26/78 
f 13/38/79 5/34/80 9/36/81 
f 9/36/82 16/44/83 13/38/84 
f 18/46/85 60/101/86 61/103/87 
f 61/103/88 17/45/89 18/46/90 
f 63/105/91 41/107/92 20/48/93 
f 20/48/94 19/47/95 63/105/96 
f 61/104/97 63/106/98 19/50/99 
f 19/50/100 17/49/101 61/104/102 
f 18/53/103 17/54/104 19/56/105 
f 19/56/106 20/55/107 18/53/108 
f 29/81/109 30/83/110 22/58/111 
f 22/58/112 21/57/113 29/81/114 
f 26/62/115 31/85/116 32/87/117 
f 32/87/118 25/61/119 26/62/120 
f 33/89/121 34/90/122 35/91/123 
f 35/91/124 36/92/125 33/89/126 
f 30/84/127 31/86/128 26/71/129 
f 26/71/130 22/69/131 30/84/132 
f 24/73/133 23/74/134 27/76/135 
f 27/76/136 28/75/137 24/73/138 
f 23/77/139 29/82/140 32/88/141 
f 32/88/142 27/79/143 23/77/144 
f 23/59/145 24/60/146 30/83/147 
f 30/83/148 29/81/149 23/59/150 
f 28/64/151 27/63/152 32/87/153 
f 32/87/154 31/85/155 28/64/156 
f 24/70/157 28/72/158 31/86/159 
f 31/86/160 30/84/161 24/70/162 
f 29/82/163 21/78/164 25/80/165 
f 25/80/166 32/88/167 29/82/168 
f 21/65/169 22/66/170 34/90/171 
f 34/90/172 33/89/173 21/65/174 
f 35/91/175 34/90/176 22/66/177 
f 22/66/178 26/68/179 35/91/180 
f 26/68/181 25/67/182 36/92/183 
f 36/92/184 35/91/185 26/68/186 
f 25/67/187 21/65/188 33/89/189 
f 33/89/190 36/92/191 25/67/192 
f 2/7/193 4/8/194 40/100/195 
f 40/100/196 37/94/197 2/7/198 
f 18/51/199 20/52/200 41/108/201 
f 41/108/202 60/102/203 18/51/204 
f 43/110/205 42/109/206 38/112/207 
f 38/112/208 37/111/209 43/110/210 
f 39/114/211 44/113/212 45/116/213 
f 45/116/214 40/115/215 39/114/216 
f 38/118/217 42/117/218 44/120/219 
f 44/120/220 39/119/221 38/118/222 
f 43/121/223 45/124/224 44/123/225 
f 44/123/226 42/122/227 43/121/228 
f 47/126/229 46/125/230 49/128/231 
f 49/128/232 48/127/233 47/126/234 
f 51/130/235 50/129/236 53/132/237 
f 53/132/238 52/131/239 51/130/240 
f 46/133/241 50/136/242 51/135/243 
f 51/135/244 49/134/245 46/133/246 
f 48/138/247 49/137/248 51/140/249 
f 51/140/250 52/139/251 48/138/252 
f 54/141/253 57/144/254 56/143/255 
f 56/143/256 55/142/257 54/141/258 
f 55/145/259 56/148/260 53/147/261 
f 53/147/262 47/146/263 55/145/264 
f 55/149/265 47/126/266 48/127/267 
f 48/127/268 54/150/269 55/149/270 
f 57/151/271 52/131/272 53/132/273 
f 53/132/274 56/152/275 57/151/276 
f 54/153/277 48/138/278 52/139/279 
f 52/139/280 57/154/281 54/153/282 
f 47/146/283 53/147/284 50/156/285 
f 50/156/286 46/155/287 47/146/288 
f 59/158/289 58/157/290 61/160/291 
f 61/160/292 60/159/293 59/158/294 
f 63/162/295 62/161/296 64/164/297 
f 64/164/298 41/163/299 63/162/300 
f 61/166/301 58/165/302 62/168/303 
f 62/168/304 63/167/305 61/166/306 
f 59/169/307 64/172/308 62/171/309 
f 62/171/310 58/170/311 59/169/312 
f 66/174/313 65/173/314 68/176/315 
f 68/176/316 67/175/317 66/174/318 
f 70/178/319 69/177/320 72/180/321 
f 72/180/322 71/179/323 70/178/324 
f 73/181/325 76/184/326 75/183/327 
f 75/183/328 74/182/329 73/181/330 
f 67/186/331 68/185/332 70/188/333 
f 70/188/334 71/187/335 67/186/336 
f 77/189/337 80/192/338 79/191/339 
f 79/191/340 78/190/341 77/189/342 
f 78/193/343 79/196/344 72/195/345 
f 72/195/346 66/194/347 78/193/348 
f 78/197/349 66/174/350 67/175/351 
f 67/175/352 77/198/353 78/197/354 
f 80/199/355 71/179/356 72/180/357 
f 72/180/358 79/200/359 80/199/360 
f 77/201/361 67/186/362 71/187/363 
f 71/187/364 80/202/365 77/201/366 
f 66/194/367 72/195/368 69/204/369 
f 69/204/370 65/203/371 66/194/372 
f 65/205/373 73/181/374 74/182/375 
f 74/182/376 68/206/377 65/205/378 
f 75/183/379 70/207/380 68/206/381 
f 68/206/382 74/182/383 75/183/384 
f 70/207/385 75/183/386 76/184/387 
f 76/184/388 69/208/389 70/207/390 
f 69/208/391 76/184/392 73/181/393 
f 73/181/394 65/205/395 69/208/396 
f 43/210/397 37/209/398 40/212/399 
f 40/212/400 45/211/401 43/210/402 
f 59/214/403 60/213/404 41/216/405 
f 41/216/406 64/215/407 59/214/408 
# 136 faces

