# 3ds Max Wavefront OBJ Exporter v0.97b - (c)2007 guruware
# File Created: 14.05.2018 18:14:50

#
# object Line018
#

v  -15.9121 6.6982 50.7515
v  -15.9121 25.0157 37.8444
v  -15.9121 25.0158 16.9778
v  -15.9121 22.0497 16.9778
v  -15.9121 22.0497 14.9960
v  -15.9121 27.2307 11.7626
v  -15.9121 27.2307 -37.0446
v  -15.9121 23.3550 -44.1251
v  -15.9121 -1.5569 -44.1251
v  -15.9121 -1.5569 -39.9948
v  -15.9121 3.8163 -34.2419
v  -15.9121 3.8163 43.3482
v  -15.9121 0.2342 47.0360
v  -15.9121 0.2342 50.1946
v  -15.9121 1.4903 50.3751
v  -15.9121 2.7048 50.5429
v  -15.9121 3.8361 50.6855
v  -15.9121 4.8427 50.7903
v  -15.9121 5.6830 50.8446
v  -15.9121 6.3154 50.8359
v  15.2156 6.6982 50.7515
v  15.2156 25.0158 37.8444
v  15.2156 25.0158 16.9778
v  15.2156 22.0497 16.9778
v  15.2156 22.0497 14.9960
v  15.2156 27.2307 11.7626
v  15.2156 27.2307 -37.0445
v  15.2156 23.3550 -44.1250
v  15.2156 -1.5569 -44.1250
v  15.2156 -1.5569 -39.9947
v  15.2156 3.8163 -34.2419
v  15.2156 3.8163 43.3482
v  15.2156 0.2342 47.0360
v  15.2156 0.2342 50.1946
v  15.2156 1.4903 50.3751
v  15.2156 2.7048 50.5429
v  15.2156 3.8362 50.6855
v  15.2156 4.8428 50.7903
v  15.2156 5.6830 50.8446
v  15.2156 6.3154 50.8359
v  -17.0565 -2.1728 -38.1266
v  -17.0565 -10.3659 -29.7960
v  -17.0565 -10.3659 40.2970
v  -17.0565 -1.9612 46.1381
v  -17.0565 1.9533 42.3831
v  -17.0565 1.9533 -33.8639
v  -11.1971 -2.1728 -38.1266
v  -11.1971 -10.3659 -29.7961
v  -11.1971 -10.3659 40.2970
v  -11.1971 -1.9612 46.1381
v  -11.1971 1.9533 42.3831
v  -11.1971 1.9533 -33.8640
v  -8.3862 -9.0451 -27.6448
v  8.9932 -9.0451 -27.6448
v  -8.3862 4.7133 -34.0969
v  8.9932 4.7133 -34.0969
v  -8.3862 -9.0451 35.3699
v  8.9932 -9.0451 35.3699
v  -8.3862 4.7133 40.3765
v  8.9932 4.7133 40.3765
v  11.1033 -2.1728 -38.1266
v  11.1033 -10.3659 -29.7960
v  11.1033 -10.3659 40.2970
v  11.1033 -1.9612 46.1381
v  11.1033 1.9533 42.3831
v  11.1033 1.9533 -33.8639
v  16.9626 -2.1728 -38.1266
v  16.9626 -10.3659 -29.7960
v  16.9626 -10.3659 40.2970
v  16.9626 -1.9612 46.1381
v  16.9626 1.9533 42.3831
v  16.9626 1.9533 -33.8639
# 72 vertices

vn -0.0000 0.4036 0.9150
vn -0.0000 0.5760 0.8175
vn -0.0000 0.5760 0.8174
vn -0.0000 0.5760 0.8174
vn -0.0000 0.4036 0.9150
vn -0.0000 0.4036 0.9150
vn -0.0000 1.0000 0.0000
vn -0.0000 1.0000 0.0000
vn -0.0000 1.0000 0.0000
vn -0.0000 1.0000 0.0000
vn -0.0000 1.0000 0.0000
vn -0.0000 1.0000 0.0000
vn 0.0000 0.0000 -1.0000
vn 0.0000 0.0000 -1.0000
vn 0.0000 0.0000 -1.0000
vn 0.0000 0.0000 -1.0000
vn 0.0000 0.0000 -1.0000
vn 0.0000 0.0000 -1.0000
vn -0.0000 1.0000 -0.0000
vn -0.0000 1.0000 -0.0000
vn -0.0000 1.0000 0.0000
vn -0.0000 1.0000 0.0000
vn -0.0000 1.0000 0.0000
vn -0.0000 1.0000 -0.0000
vn -0.0000 0.5295 0.8483
vn -0.0000 0.5295 0.8483
vn -0.0000 0.5295 0.8483
vn -0.0000 0.5295 0.8483
vn -0.0000 0.5295 0.8483
vn -0.0000 0.5295 0.8483
vn -0.0000 1.0000 0.0000
vn -0.0000 1.0000 0.0000
vn -0.0000 1.0000 0.0000
vn -0.0000 1.0000 0.0000
vn -0.0000 1.0000 0.0000
vn -0.0000 1.0000 0.0000
vn 0.0000 0.8772 -0.4802
vn 0.0000 0.8772 -0.4802
vn 0.0000 0.8772 -0.4802
vn 0.0000 0.8772 -0.4802
vn 0.0000 0.8772 -0.4802
vn 0.0000 0.8772 -0.4802
vn 0.0000 0.0000 -1.0000
vn 0.0000 0.0000 -1.0000
vn 0.0000 0.0000 -1.0000
vn 0.0000 0.0000 -1.0000
vn 0.0000 0.0000 -1.0000
vn 0.0000 0.0000 -1.0000
vn 0.0000 -1.0000 0.0000
vn 0.0000 -1.0000 0.0000
vn 0.0000 -1.0000 0.0000
vn 0.0000 -1.0000 0.0000
vn 0.0000 -1.0000 0.0000
vn 0.0000 -1.0000 0.0000
vn -0.0000 -0.7308 0.6826
vn 0.0000 -0.7308 0.6826
vn -0.0000 -0.7308 0.6826
vn -0.0000 -0.7308 0.6826
vn -0.0000 -0.7308 0.6826
vn -0.0000 -0.7308 0.6826
vn 0.0000 -1.0000 -0.0000
vn 0.0000 -1.0000 0.0000
vn 0.0000 -1.0000 -0.0000
vn 0.0000 -1.0000 -0.0000
vn 0.0000 -1.0000 -0.0000
vn 0.0000 -1.0000 -0.0000
vn 0.0000 -0.7173 -0.6968
vn 0.0000 -0.7173 -0.6968
vn 0.0000 -0.7173 -0.6968
vn 0.0000 -0.7173 -0.6968
vn 0.0000 -0.7173 -0.6968
vn 0.0000 -0.7173 -0.6968
vn 0.0000 -1.0000 -0.0000
vn 0.0000 -1.0000 0.0000
vn 0.0000 -1.0000 -0.0000
vn 0.0000 -1.0000 -0.0000
vn 0.0000 -1.0000 -0.0000
vn 0.0000 -1.0000 -0.0000
vn -0.0000 -0.1422 0.9898
vn -0.0000 -0.1395 0.9902
vn -0.0000 -0.1395 0.9902
vn -0.0000 -0.1395 0.9902
vn -0.0000 -0.1422 0.9898
vn -0.0000 -0.1422 0.9898
vn -0.0000 -0.1395 0.9902
vn -0.0000 -0.1310 0.9914
vn -0.0000 -0.1310 0.9914
vn -0.0000 -0.1310 0.9914
vn -0.0000 -0.1395 0.9902
vn -0.0000 -0.1395 0.9902
vn -0.0000 -0.1310 0.9914
vn -0.0000 -0.1143 0.9934
vn -0.0000 -0.1143 0.9934
vn -0.0000 -0.1143 0.9934
vn -0.0000 -0.1310 0.9914
vn -0.0000 -0.1310 0.9914
vn -0.0000 -0.1143 0.9934
vn -0.0000 -0.0840 0.9965
vn -0.0000 -0.0840 0.9965
vn -0.0000 -0.0840 0.9965
vn -0.0000 -0.1143 0.9934
vn -0.0000 -0.1143 0.9934
vn -0.0000 -0.0840 0.9965
vn -0.0000 -0.0254 0.9997
vn -0.0000 -0.0254 0.9997
vn -0.0000 -0.0254 0.9997
vn -0.0000 -0.0840 0.9965
vn -0.0000 -0.0840 0.9965
vn -0.0000 -0.0254 0.9997
vn -0.0000 0.1151 0.9933
vn -0.0000 0.1151 0.9933
vn -0.0000 0.1151 0.9933
vn -0.0000 -0.0254 0.9997
vn -0.0000 -0.0254 0.9997
vn -0.0000 0.1151 0.9933
vn -0.0000 0.4036 0.9150
vn -0.0000 0.4036 0.9150
vn -0.0000 0.4036 0.9150
vn -0.0000 0.1151 0.9933
vn -0.0000 0.1151 0.9933
vn 1.0000 -0.0000 0.0000
vn 1.0000 0.0000 0.0000
vn 1.0000 0.0000 0.0000
vn 1.0000 0.0000 -0.0000
vn 1.0000 0.0000 0.0000
vn 1.0000 0.0000 0.0000
vn 1.0000 0.0000 -0.0000
vn 1.0000 0.0000 0.0000
vn 1.0000 0.0000 0.0000
vn 1.0000 0.0000 -0.0000
vn 1.0000 0.0000 0.0000
vn 1.0000 0.0000 0.0000
vn 1.0000 0.0000 -0.0000
vn 1.0000 0.0000 0.0000
vn 1.0000 0.0000 0.0000
vn 1.0000 0.0000 -0.0000
vn 1.0000 0.0000 0.0000
vn 1.0000 0.0000 0.0000
vn 1.0000 0.0000 0.0000
vn 1.0000 0.0000 0.0000
vn 1.0000 0.0000 -0.0000
vn 1.0000 0.0000 -0.0000
vn 1.0000 0.0000 0.0000
vn 1.0000 0.0000 -0.0000
vn 1.0000 0.0000 -0.0000
vn 1.0000 0.0000 -0.0000
vn 1.0000 0.0000 -0.0000
vn 1.0000 0.0000 0.0000
vn 1.0000 0.0000 -0.0000
vn 1.0000 0.0000 -0.0000
vn 1.0000 -0.0000 0.0000
vn 1.0000 0.0000 0.0000
vn 1.0000 0.0000 -0.0000
vn 1.0000 -0.0000 0.0000
vn 1.0000 -0.0000 0.0000
vn 1.0000 0.0000 -0.0000
vn 1.0000 -0.0000 0.0000
vn 1.0000 0.0000 -0.0000
vn 1.0000 0.0000 0.0000
vn 1.0000 0.0000 0.0000
vn 1.0000 -0.0000 0.0000
vn 1.0000 0.0000 0.0000
vn 1.0000 0.0000 0.0000
vn 1.0000 0.0000 0.0000
vn 1.0000 0.0000 0.0000
vn 1.0000 0.0000 0.0000
vn 1.0000 0.0000 0.0000
vn 1.0000 0.0000 0.0000
vn 1.0000 0.0000 0.0000
vn 1.0000 0.0000 0.0000
vn 1.0000 0.0000 0.0000
vn 1.0000 0.0000 0.0000
vn 1.0000 0.0000 0.0000
vn 1.0000 0.0000 0.0000
vn -1.0000 -0.0000 -0.0000
vn -1.0000 -0.0000 -0.0000
vn -1.0000 -0.0000 -0.0000
vn -1.0000 -0.0000 -0.0000
vn -1.0000 -0.0000 -0.0000
vn -1.0000 -0.0000 -0.0000
vn -1.0000 -0.0000 0.0000
vn -1.0000 -0.0000 0.0000
vn -1.0000 -0.0000 0.0000
vn -1.0000 -0.0000 -0.0000
vn -1.0000 -0.0000 -0.0000
vn -1.0000 -0.0000 -0.0000
vn -1.0000 -0.0000 -0.0000
vn -1.0000 -0.0000 -0.0000
vn -1.0000 -0.0000 -0.0000
vn -1.0000 -0.0000 0.0000
vn -1.0000 -0.0000 -0.0000
vn -1.0000 -0.0000 -0.0000
vn -1.0000 0.0000 -0.0000
vn -1.0000 -0.0000 0.0000
vn -1.0000 -0.0000 -0.0000
vn -1.0000 -0.0000 0.0000
vn -1.0000 0.0000 -0.0000
vn -1.0000 -0.0000 -0.0000
vn -1.0000 -0.0000 0.0000
vn -1.0000 -0.0000 0.0000
vn -1.0000 -0.0000 -0.0000
vn -1.0000 -0.0000 -0.0000
vn -1.0000 -0.0000 0.0000
vn -1.0000 -0.0000 -0.0000
vn -1.0000 -0.0000 -0.0000
vn -1.0000 -0.0000 -0.0000
vn -1.0000 -0.0000 -0.0000
vn -1.0000 -0.0000 -0.0000
vn -1.0000 -0.0000 -0.0000
vn -1.0000 0.0000 0.0000
vn -1.0000 -0.0000 -0.0000
vn -1.0000 -0.0000 -0.0000
vn -1.0000 0.0000 0.0000
vn -1.0000 -0.0000 -0.0000
vn -1.0000 0.0000 0.0000
vn -1.0000 0.0000 -0.0000
vn -1.0000 -0.0000 -0.0000
vn -1.0000 -0.0000 -0.0000
vn -1.0000 0.0000 -0.0000
vn -1.0000 -0.0000 -0.0000
vn -1.0000 0.0000 -0.0000
vn -1.0000 0.0000 -0.0000
vn -1.0000 -0.0000 -0.0000
vn -1.0000 0.0000 -0.0000
vn -1.0000 -0.0000 -0.0000
vn -1.0000 -0.0000 -0.0000
vn -1.0000 -0.0000 -0.0000
vn -1.0000 -0.0000 -0.0000
vn -0.0000 -0.7130 -0.7012
vn -0.0000 -0.7130 -0.7012
vn -0.0000 -0.7130 -0.7012
vn -0.0000 -0.7130 -0.7012
vn -0.0000 -0.7130 -0.7012
vn -0.0000 -0.7130 -0.7012
vn 0.0000 -1.0000 0.0000
vn 0.0000 -1.0000 0.0000
vn 0.0000 -1.0000 0.0000
vn 0.0000 -1.0000 0.0000
vn 0.0000 -1.0000 0.0000
vn 0.0000 -1.0000 0.0000
vn 0.0000 -0.5707 0.8212
vn 0.0000 -0.5707 0.8212
vn 0.0000 -0.5707 0.8212
vn 0.0000 -0.5707 0.8212
vn 0.0000 -0.5707 0.8212
vn 0.0000 -0.5707 0.8212
vn 0.0000 0.6922 0.7217
vn 0.0000 0.6922 0.7217
vn 0.0000 0.6922 0.7217
vn 0.0000 0.6922 0.7217
vn 0.0000 0.6922 0.7217
vn 0.0000 0.6922 0.7217
vn -0.0000 1.0000 0.0000
vn -0.0000 1.0000 0.0000
vn -0.0000 1.0000 0.0000
vn -0.0000 1.0000 0.0000
vn -0.0000 1.0000 0.0000
vn -0.0000 1.0000 0.0000
vn -0.0000 0.7185 -0.6955
vn -0.0000 0.7185 -0.6955
vn -0.0000 0.7185 -0.6955
vn -0.0000 0.7185 -0.6955
vn -0.0000 0.7185 -0.6955
vn -0.0000 0.7185 -0.6955
vn 1.0000 -0.0000 -0.0000
vn 1.0000 -0.0000 -0.0000
vn 1.0000 -0.0000 0.0000
vn 1.0000 -0.0000 -0.0000
vn 1.0000 -0.0000 0.0000
vn 1.0000 -0.0000 0.0000
vn 1.0000 -0.0000 0.0000
vn 1.0000 -0.0000 -0.0000
vn 1.0000 -0.0000 0.0000
vn 1.0000 -0.0000 0.0000
vn 1.0000 -0.0000 0.0000
vn 1.0000 -0.0000 0.0000
vn -1.0000 0.0000 0.0000
vn -1.0000 0.0000 0.0000
vn -1.0000 0.0000 -0.0000
vn -1.0000 -0.0000 -0.0000
vn -1.0000 -0.0000 -0.0000
vn -1.0000 -0.0000 -0.0000
vn -1.0000 0.0000 -0.0000
vn -1.0000 -0.0000 -0.0000
vn -1.0000 -0.0000 -0.0000
vn -1.0000 0.0000 0.0000
vn -1.0000 0.0000 -0.0000
vn -1.0000 -0.0000 -0.0000
vn 0.0000 -0.4246 -0.9054
vn 0.0000 -0.4246 -0.9054
vn 0.0000 -0.4246 -0.9054
vn 0.0000 -0.4246 -0.9054
vn -0.0000 -0.4246 -0.9054
vn 0.0000 -0.4246 -0.9054
vn 0.0000 -0.3420 0.9397
vn 0.0000 -0.3420 0.9397
vn 0.0000 -0.3420 0.9397
vn 0.0000 -0.3420 0.9397
vn -0.0000 -0.3420 0.9397
vn 0.0000 -0.3420 0.9397
vn 0.0000 -1.0000 -0.0000
vn 0.0000 -1.0000 -0.0000
vn 0.0000 -1.0000 -0.0000
vn 0.0000 -1.0000 -0.0000
vn 0.0000 -1.0000 -0.0000
vn 0.0000 -1.0000 -0.0000
vn 1.0000 0.0000 -0.0000
vn 1.0000 0.0000 -0.0000
vn 1.0000 0.0000 0.0000
vn 1.0000 0.0000 0.0000
vn 1.0000 0.0000 0.0000
vn 1.0000 0.0000 -0.0000
vn -0.0000 1.0000 0.0000
vn -0.0000 1.0000 0.0000
vn -0.0000 1.0000 0.0000
vn -0.0000 1.0000 0.0000
vn -0.0000 1.0000 0.0000
vn -0.0000 1.0000 0.0000
vn -1.0000 -0.0000 -0.0000
vn -1.0000 -0.0000 -0.0000
vn -1.0000 -0.0000 -0.0000
vn -1.0000 -0.0000 -0.0000
vn -1.0000 -0.0000 -0.0000
vn -1.0000 -0.0000 -0.0000
vn -0.0000 -0.7130 -0.7012
vn 0.0000 -0.7130 -0.7012
vn -0.0000 -0.7130 -0.7012
vn -0.0000 -0.7130 -0.7012
vn -0.0000 -0.7130 -0.7012
vn -0.0000 -0.7130 -0.7012
vn 0.0000 -1.0000 0.0000
vn 0.0000 -1.0000 0.0000
vn 0.0000 -1.0000 0.0000
vn 0.0000 -1.0000 0.0000
vn 0.0000 -1.0000 0.0000
vn 0.0000 -1.0000 0.0000
vn -0.0000 -0.5707 0.8212
vn -0.0000 -0.5707 0.8212
vn -0.0000 -0.5707 0.8212
vn -0.0000 -0.5707 0.8212
vn -0.0000 -0.5707 0.8212
vn -0.0000 -0.5707 0.8212
vn -0.0000 0.6922 0.7217
vn -0.0000 0.6922 0.7217
vn -0.0000 0.6922 0.7217
vn -0.0000 0.6922 0.7217
vn -0.0000 0.6922 0.7217
vn -0.0000 0.6922 0.7217
vn -0.0000 1.0000 -0.0000
vn 0.0000 1.0000 -0.0000
vn 0.0000 1.0000 -0.0000
vn 0.0000 1.0000 -0.0000
vn -0.0000 1.0000 -0.0000
vn -0.0000 1.0000 -0.0000
vn 0.0000 0.7185 -0.6955
vn 0.0000 0.7185 -0.6955
vn 0.0000 0.7185 -0.6955
vn 0.0000 0.7185 -0.6955
vn 0.0000 0.7185 -0.6955
vn 0.0000 0.7185 -0.6955
vn 1.0000 -0.0000 0.0000
vn 1.0000 -0.0000 -0.0000
vn 1.0000 -0.0000 0.0000
vn 1.0000 -0.0000 0.0000
vn 1.0000 -0.0000 0.0000
vn 1.0000 0.0000 0.0000
vn 1.0000 0.0000 0.0000
vn 1.0000 -0.0000 0.0000
vn 1.0000 0.0000 0.0000
vn 1.0000 0.0000 0.0000
vn 1.0000 0.0000 0.0000
vn 1.0000 0.0000 0.0000
vn -1.0000 0.0000 0.0000
vn -1.0000 0.0000 0.0000
vn -1.0000 -0.0000 -0.0000
vn -1.0000 -0.0000 -0.0000
vn -1.0000 -0.0000 0.0000
vn -1.0000 -0.0000 0.0000
vn -1.0000 -0.0000 -0.0000
vn -1.0000 -0.0000 -0.0000
vn -1.0000 -0.0000 0.0000
vn -1.0000 0.0000 0.0000
vn -1.0000 -0.0000 -0.0000
vn -1.0000 -0.0000 0.0000
# 384 vertex normals

vt 59.9845 -7.8740 0.0000
vt 42.5066 14.5976 0.0000
vt 14.2505 14.5976 -0.0000
vt 14.2505 10.9590 -0.0000
vt 11.5669 10.9590 -0.0000
vt 7.1884 17.3149 -0.0000
vt -58.9030 17.3149 0.0000
vt -68.4909 12.5602 0.0000
vt -68.4909 -18.0012 -0.0000
vt -62.8979 -18.0012 -0.0000
vt -55.1078 -11.4095 -0.0000
vt 49.9595 -11.4095 0.0000
vt 54.9532 -15.8039 -0.0000
vt 59.2304 -15.8039 -0.0000
vt 59.4748 -14.2630 -0.0000
vt 59.7021 -12.7730 -0.0000
vt 59.8952 -11.3851 -0.0000
vt 60.0370 -10.1502 0.0000
vt 60.1106 -9.1194 0.0000
vt 60.0988 -8.3437 0.0000
vt 59.9845 -7.8740 -42.5000
vt 42.5066 14.5976 -42.5000
vt 14.2505 14.5976 -42.5000
vt 14.2505 10.9590 -42.5000
vt 11.5669 10.9590 -42.5000
vt 7.1884 17.3149 -42.5000
vt -58.9030 17.3149 -42.5000
vt -68.4909 12.5602 -42.5000
vt -68.4909 -18.0012 -42.5000
vt -62.8979 -18.0012 -42.5000
vt -55.1078 -11.4095 -42.5000
vt 49.9595 -11.4095 -42.5000
vt 54.9532 -15.8039 -42.5000
vt 59.2304 -15.8039 -42.5000
vt 59.4748 -14.2630 -42.5000
vt 59.7021 -12.7730 -42.5000
vt 59.8952 -11.3851 -42.5000
vt 60.0370 -10.1502 -42.5000
vt 60.1106 -9.1194 -42.5000
vt 60.0988 -8.3437 -42.5000
vt -60.3682 -18.7568 1.5624
vt -49.0875 -28.8080 1.5624
vt 45.8277 -28.8080 1.5624
vt 53.7373 -18.4972 1.5624
vt 48.6526 -13.6950 1.5624
vt -54.5960 -13.6950 1.5624
vt -60.3682 -18.7568 -6.4376
vt -49.0875 -28.8080 -6.4376
vt 45.8277 -28.8080 -6.4376
vt 53.7373 -18.4972 -6.4376
vt 48.6526 -13.6950 -6.4376
vt -54.5960 -13.6950 -6.4376
vt 1.0000 0.0000 0.0000
vt 0.0000 0.0000 0.0000
vt 1.0000 1.0000 0.0000
vt 0.0000 1.0000 0.0000
vt 0.0000 0.0000 0.0000
vt 1.0000 0.0000 0.0000
vt 0.0000 1.0000 0.0000
vt 1.0000 1.0000 0.0000
vt 0.0000 0.0000 0.0000
vt 1.0000 0.0000 0.0000
vt 0.0000 1.0000 0.0000
vt 1.0000 1.0000 0.0000
vt 0.0000 0.0000 0.0000
vt 1.0000 0.0000 0.0000
vt 0.0000 1.0000 0.0000
vt 1.0000 1.0000 0.0000
vt 0.0000 0.0000 0.0000
vt 1.0000 0.0000 0.0000
vt 0.0000 1.0000 0.0000
vt 1.0000 1.0000 0.0000
vt 0.0000 0.0000 0.0000
vt 1.0000 0.0000 0.0000
vt 0.0000 1.0000 0.0000
vt 1.0000 1.0000 0.0000
vt -57.7292 1.6198 0.0000
vt -46.4485 -8.4313 -0.0000
vt 48.4667 -8.4313 -0.0000
vt 56.3763 1.8794 0.0000
vt 51.2916 6.6817 0.0000
vt -51.9570 6.6817 0.0000
vt -57.7292 1.6198 -8.0000
vt -46.4485 -8.4313 -8.0000
vt 48.4667 -8.4313 -8.0000
vt 56.3763 1.8794 -8.0000
vt 51.2916 6.6817 -8.0000
vt -51.9570 6.6817 -8.0000
# 88 texture coords

g Line018
f 21/21/1 22/22/2 2/2/3 
f 2/2/4 1/1/5 21/21/6 
f 22/22/7 23/23/8 3/3/9 
f 3/3/10 2/2/11 22/22/12 
f 23/23/13 24/24/14 4/4/15 
f 4/4/16 3/3/17 23/23/18 
f 24/24/19 25/25/20 5/5/21 
f 5/5/22 4/4/23 24/24/24 
f 25/25/25 26/26/26 6/6/27 
f 6/6/28 5/5/29 25/25/30 
f 26/26/31 27/27/32 7/7/33 
f 7/7/34 6/6/35 26/26/36 
f 27/27/37 28/28/38 8/8/39 
f 8/8/40 7/7/41 27/27/42 
f 28/28/43 29/29/44 9/9/45 
f 9/9/46 8/8/47 28/28/48 
f 29/29/49 30/30/50 10/10/51 
f 10/10/52 9/9/53 29/29/54 
f 30/30/55 31/31/56 11/11/57 
f 11/11/58 10/10/59 30/30/60 
f 31/31/61 32/32/62 12/12/63 
f 12/12/64 11/11/65 31/31/66 
f 32/32/67 33/33/68 13/13/69 
f 13/13/70 12/12/71 32/32/72 
f 33/33/73 34/34/74 14/14/75 
f 14/14/76 13/13/77 33/33/78 
f 34/34/79 35/35/80 15/15/81 
f 15/15/82 14/14/83 34/34/84 
f 35/35/85 36/36/86 16/16/87 
f 16/16/88 15/15/89 35/35/90 
f 36/36/91 37/37/92 17/17/93 
f 17/17/94 16/16/95 36/36/96 
f 37/37/97 38/38/98 18/18/99 
f 18/18/100 17/17/101 37/37/102 
f 38/38/103 39/39/104 19/19/105 
f 19/19/106 18/18/107 38/38/108 
f 39/39/109 40/40/110 20/20/111 
f 20/20/112 19/19/113 39/39/114 
f 40/40/115 21/21/116 1/1/117 
f 1/1/118 20/20/119 40/40/120 
f 24/24/121 23/23/122 22/22/123 
f 21/21/124 40/40/125 39/39/126 
f 21/21/127 39/39/128 38/38/129 
f 21/21/130 38/38/131 37/37/132 
f 21/21/133 37/37/134 36/36/135 
f 21/21/136 36/36/137 35/35/138 
f 35/35/139 34/34/140 33/33/141 
f 21/21/142 35/35/143 33/33/144 
f 21/21/145 33/33/146 32/32/147 
f 22/22/148 21/21/149 32/32/150 
f 24/24/151 22/22/152 32/32/153 
f 25/25/154 24/24/155 32/32/156 
f 25/25/157 32/32/158 31/31/159 
f 26/26/160 25/25/161 31/31/162 
f 27/27/163 26/26/164 31/31/165 
f 28/28/166 27/27/167 31/31/168 
f 28/28/169 31/31/170 30/30/171 
f 28/28/172 30/30/173 29/29/174 
f 8/8/175 9/9/176 10/10/177 
f 8/8/178 10/10/179 11/11/180 
f 13/13/181 14/14/182 15/15/183 
f 19/19/184 20/20/185 1/1/186 
f 18/18/187 19/19/188 1/1/189 
f 17/17/190 18/18/191 1/1/192 
f 16/16/193 17/17/194 1/1/195 
f 15/15/196 16/16/197 1/1/198 
f 13/13/199 15/15/200 1/1/201 
f 12/12/202 13/13/203 1/1/204 
f 12/12/205 1/1/206 2/2/207 
f 2/2/208 3/3/209 4/4/210 
f 12/12/211 2/2/212 4/4/213 
f 12/12/214 4/4/215 5/5/216 
f 11/11/217 12/12/218 5/5/219 
f 11/11/220 5/5/221 6/6/222 
f 11/11/223 6/6/224 7/7/225 
f 8/8/226 11/11/227 7/7/228 
f 47/47/229 48/48/230 42/42/231 
f 42/42/232 41/41/233 47/47/234 
f 48/48/235 49/49/236 43/43/237 
f 43/43/238 42/42/239 48/48/240 
f 49/49/241 50/50/242 44/44/243 
f 44/44/244 43/43/245 49/49/246 
f 50/50/247 51/51/248 45/45/249 
f 45/45/250 44/44/251 50/50/252 
f 51/51/253 52/52/254 46/46/255 
f 46/46/256 45/45/257 51/51/258 
f 52/52/259 47/47/260 41/41/261 
f 41/41/262 46/46/263 52/52/264 
f 51/51/265 50/50/266 49/49/267 
f 51/51/268 49/49/269 48/48/270 
f 52/52/271 51/51/272 48/48/273 
f 52/52/274 48/48/275 47/47/276 
f 46/46/277 41/41/278 42/42/279 
f 43/43/280 44/44/281 45/45/282 
f 42/42/283 43/43/284 45/45/285 
f 46/46/286 42/42/287 45/45/288 
f 53/53/289 55/55/290 56/56/291 
f 56/56/292 54/54/293 53/53/294 
f 57/57/295 58/58/296 60/60/297 
f 60/60/298 59/59/299 57/57/300 
f 53/61/301 54/62/302 58/64/303 
f 58/64/304 57/63/305 53/61/306 
f 54/65/307 56/66/308 60/68/309 
f 60/68/310 58/67/311 54/65/312 
f 56/69/313 55/70/314 59/72/315 
f 59/72/316 60/71/317 56/69/318 
f 55/73/319 53/74/320 57/76/321 
f 57/76/322 59/75/323 55/73/324 
f 67/83/325 68/84/326 62/78/327 
f 62/78/328 61/77/329 67/83/330 
f 68/84/331 69/85/332 63/79/333 
f 63/79/334 62/78/335 68/84/336 
f 69/85/337 70/86/338 64/80/339 
f 64/80/340 63/79/341 69/85/342 
f 70/86/343 71/87/344 65/81/345 
f 65/81/346 64/80/347 70/86/348 
f 71/87/349 72/88/350 66/82/351 
f 66/82/352 65/81/353 71/87/354 
f 72/88/355 67/83/356 61/77/357 
f 61/77/358 66/82/359 72/88/360 
f 71/87/361 70/86/362 69/85/363 
f 71/87/364 69/85/365 68/84/366 
f 72/88/367 71/87/368 68/84/369 
f 72/88/370 68/84/371 67/83/372 
f 66/82/373 61/77/374 62/78/375 
f 63/79/376 64/80/377 65/81/378 
f 62/78/379 63/79/380 65/81/381 
f 66/82/382 62/78/383 65/81/384 
# 128 faces

